<svg height="512pt" viewBox="0 -11 512 512" width="512pt" xmlns="http://www.w3.org/2000/svg"><path d="m450.808594 280.925781-11.449219-58.261719c-3.136719-16.355468-8.546875-28.84375-16.542969-38.175781-10.308594-12.027343-24.765625-18.386719-41.816406-18.386719h-47v-80.101562c0-11.046875-8.953125-20-20-20s-20 8.953125-20 20v194.101562h-194c-11.046875 0-20 8.953126-20 20 0 11.042969 8.953125 20 20 20h333c1.855469 0 3.640625-.273437 5.34375-.746093 18.914062 2.164062 33.65625 18.261719 33.65625 37.746093v52h-43.441406c-8.253906-23.28125-30.484375-40-56.558594-40s-48.304688 16.71875-56.558594 40h-123.882812c-8.253906-23.28125-30.484375-40-56.558594-40-26.058594 0-48.277344 16.703126-56.546875 39.960938-21.339844-.816406-38.453125-18.425781-38.453125-39.960938v-283.101562c0-11.046875-8.953125-20-20-20s-20 8.953125-20 20v283.101562c0 43.582032 35.039062 79.113282 78.425781 79.957032 8.246094 23.300781 30.488281 40.042968 56.574219 40.042968 26.074219 0 48.304688-16.722656 56.558594-40h123.882812c8.253906 23.277344 30.484375 40 56.558594 40s48.304688-16.722656 56.558594-40h63.441406c11.046875 0 20-8.957031 20-20v-72c0-37.242187-26.234375-68.46875-61.191406-76.175781zm-116.808594-74.824219h47c6.105469 0 14.464844 0 19.082031 24.132813.003907.035156.011719.066406.019531.101563l9.78125 49.765624h-75.882812zm-199 243c-11.027344 0-20-8.972656-20-20 0-11.03125 8.972656-20 20-20s20 8.96875 20 20c0 11.027344-8.972656 20-20 20zm237 0c-11.027344 0-20-8.972656-20-20 0-11.03125 8.972656-20 20-20s20 8.96875 20 20c0 11.027344-8.972656 20-20 20zm-284.03125-361.859374c-7.871094-7.746094-7.96875-20.410157-.222656-28.28125l43.453125-44.136719c9.414062-9.558594 21.953125-14.824219 35.304687-14.824219 13.355469 0 25.890625 5.265625 35.304688 14.824219l44.445312 45.144531c7.746094 7.871094 7.648438 20.535156-.222656 28.285156-3.894531 3.832032-8.964844 5.746094-14.03125 5.746094-5.171875 0-10.339844-1.992188-14.253906-5.96875l-30.746094-31.230469v164.199219c0 11.046875-8.953125 20-20 20s-20-8.953125-20-20v-165.210938l-30.746094 31.234376c-7.753906 7.871093-20.414062 7.96875-28.285156.21875zm0 0"/></svg>